<?xml version="1.0"?>
<svg xmlns="http://www.w3.org/2000/svg" id="Capa_1" enable-background="new 0 0 512 512" height="512px" viewBox="0 0 512 512" width="512px" class=""><g><path d="m501.991 128.354-241-85.031c-3.229-1.14-6.752-1.14-9.981 0l-241 85.031c-5.992 2.114-10.002 7.774-10.01 14.128s3.989 12.023 9.976 14.151l241 85.677c1.625.578 3.325.867 5.024.867 1.7 0 3.399-.289 5.024-.867l241-85.677c5.987-2.128 9.983-7.797 9.976-14.151-.008-6.354-4.018-12.014-10.009-14.128z" data-original="#000000" class="active-path" data-old_color="#000000" fill="#FFFFFF"/><path d="m475.973 328.574v-130.84l-30 10.665v120.175c-9.036 5.201-15.125 14.946-15.125 26.121 0 11.174 6.089 20.92 15.125 26.121v73.716c0 8.284 6.716 15 15 15s15-6.716 15-15v-73.715c9.036-5.2 15.125-14.947 15.125-26.121 0-11.175-6.088-20.921-15.125-26.122z" data-original="#000000" class="active-path" data-old_color="#000000" fill="#FFFFFF"/><path d="m256 273.177c-5.149 0-10.22-.875-15.073-2.6l-135.483-48.165v66.008c0 16.149 16.847 29.806 50.073 40.59 28.961 9.4 64.647 14.577 100.483 14.577s71.521-5.177 100.483-14.577c33.226-10.784 50.073-24.441 50.073-40.59v-66.008l-135.482 48.165c-4.854 1.725-9.925 2.6-15.074 2.6z" data-original="#000000" class="active-path" fill="#FFFFFF"/></g> </svg>
